<svg version="1.0" xmlns="http://www.w3.org/2000/svg"
 width="32.000000pt" height="32.000000pt" viewBox="0 0 32.000000 32.000000"
 preserveAspectRatio="xMidYMid meet">

<g transform="translate(0.000000,32.000000) scale(0.100000,-0.100000)"
fill="#000000" stroke="none">
<path d="M95 306 c-95 -42 -124 -169 -58 -247 40 -47 79 -59 188 -59 78 0 95
3 95 15 0 10 -10 15 -31 15 l-30 0 28 37 c23 30 28 46 28 94 0 62 -17 94 -67
132 -33 25 -113 32 -153 13z m95 -31 c23 -28 -9 -72 -45 -59 -36 14 -24 74 15
74 10 0 23 -7 30 -15z m-90 -60 c26 -32 -13 -81 -47 -59 -24 15 -27 38 -8 58
20 20 39 20 55 1z m175 -1 c19 -20 16 -43 -7 -58 -35 -22 -74 27 -48 59 16 19
35 19 55 -1z m-105 -54 c0 -5 -4 -10 -10 -10 -5 0 -10 5 -10 10 0 6 5 10 10
10 6 0 10 -4 10 -10z m-35 -75 c0 -27 -3 -30 -30 -30 -21 0 -31 5 -33 18 -6
33 6 49 35 45 24 -3 28 -8 28 -33z m110 0 c0 -27 -3 -30 -30 -30 -21 0 -31 5
-33 18 -6 33 6 49 35 45 24 -3 28 -8 28 -33z"/>
</g>
</svg>